<?xml version="1.0" encoding="UTF-8" standalone="no"?>
<!DOCTYPE svg PUBLIC "-//W3C//DTD SVG 1.1//EN" "http://www.w3.org/Graphics/SVG/1.1/DTD/svg11.dtd">
<svg width="100%" height="100%" viewBox="0 0 200 169" version="1.1" xmlns="http://www.w3.org/2000/svg" xmlns:xlink="http://www.w3.org/1999/xlink" xml:space="preserve" xmlns:serif="http://www.serif.com/" style="fill-rule:evenodd;clip-rule:evenodd;stroke-linecap:round;stroke-linejoin:round;">
    <g transform="matrix(1,0,0,1,-0.5,-17.010728)">
        <g transform="matrix(2.143411,0,0,2.143411,-56.302326,-27.209302)">
            <path d="M50,26C50,26 36,26 36,40L36,53C36,57 30,60 30,60C30,60 36,63 36,67L36,80C36,94 50,94 50,94" style="fill:none;fill-rule:nonzero;stroke:rgb(200,185,122);stroke-width:7px;"/>
        </g>
        <g transform="matrix(-2.143411,0,0,2.143411,256.635659,-27.209302)">
            <path d="M50,26C50,26 36,26 36,40L36,53C36,57 30,60 30,60C30,60 36,63 36,67L36,80C36,94 50,94 50,94" style="fill:none;fill-rule:nonzero;stroke:rgb(200,185,122);stroke-width:7px;"/>
        </g>
        <g transform="matrix(2.143411,0,0,2.143411,-71.02093,-27.209302)">
            <path d="M64,48C64,48 72,52 72,60C72,68 64,72 64,72" style="fill:none;fill-rule:nonzero;stroke:rgb(200,185,122);stroke-width:6px;stroke-linejoin:miter;"/>
        </g>
        <g transform="matrix(2.143411,0,0,2.143411,-71.02093,-27.209302)">
            <path d="M74,40C74,40 86,47 86,60C86,73 74,80 74,80" style="fill:none;fill-rule:nonzero;stroke:rgb(200,185,122);stroke-opacity:0.6;stroke-width:6px;stroke-linejoin:miter;"/>
        </g>
        <g transform="matrix(2.143411,0,0,2.143411,-71.02093,-27.209302)">
            <path d="M83,33C83,33 98,43 98,60C98,77 83,87 83,87" style="fill:none;fill-rule:nonzero;stroke:rgb(200,185,122);stroke-opacity:0.3;stroke-width:6px;stroke-linejoin:miter;"/>
        </g>
    </g>
</svg>
